# xmcd
# 
# Track frame offsets:
#     150
#     15721
#     34062
#     52268
#     68026
#     86795
#     106754
#     117187
#     129544
#     143020
#     163135
#     190008
# 
# Disc length: 2711
# 
# Revision: 1
# Processed by: cddbd v1.5.2PL0 Copyright (c) Steve Scherf et al.
# Submitted via: BonkEnc v1.0.6
# 
DISCID=a20a950c
DTITLE=J.J. Grey and Mofro - Country Ghetto
DYEAR=2007
DGENRE=Blues
TTITLE0=War
TTITLE1=Circles
TTITLE2=Country Ghetto
TTITLE3=Tragic
TTITLE4=By My Side
TTITLE5=On Palastine
TTITLE6=Footsteps
TTITLE7=Turpentine
TTITLE8=A Woman
TTITLE9=Mississippi
TTITLE10=The Sun Is Shining Down
TTITLE11=Goodbye
EXTD=JJ Grey and MOFRO, \nCountry Ghetto
EXTT0=
EXTT1=
EXTT2=
EXTT3=
EXTT4=
EXTT5=
EXTT6=
EXTT7=
EXTT8=
EXTT9=
EXTT10=
EXTT11=
PLAYORDER=
